<svg id="logo" xmlns="http://www.w3.org/2000/svg" width="43.078" height="38.019" viewBox="0 0 43.078 38.019">
  <path id="Tracé_1074" data-name="Tracé 1074" d="M211.85,119.22h0" transform="translate(-174.814 -98.372)" fill="#ce181e"/>
  <path id="Tracé_1075" data-name="Tracé 1075" d="M86.117,108.049c-.637.37-1.266.685-1.867.979l-.447.219-.1.047-.025.012H83.67l-.06.028a2.085,2.085,0,0,1-.3.11l-.114.03-.334.156-.121.056-.117.053-.235.105-.14.063a15.183,15.183,0,0,1-24.416,10.061l-.3.35c-.732.867-1.457,1.737-2.193,2.627a20.371,20.371,0,0,0,11.931,3.786c11.051,0,19.756-8.5,19.756-19.089v-.163c-.3.2-.606.394-.909.569" transform="translate(-45.713 -88.713)" fill="#ce181e"/>
  <path id="Tracé_1076" data-name="Tracé 1076" d="M36.283,19.91h0m-.715-3.554.044-.019-.028.012-.03.014h-.023ZM1.494,14.564a.143.143,0,0,1,.044,0h.044l-.072.019H1.5M21.478,3.537a14.916,14.916,0,0,1,12.9,7.074h-.023l-.617-.021-.628-.019c-.418-.01-.836-.019-1.254-.023H30.607q-1.25,0-2.5.033c-.831.024-1.661.054-2.488.1s-1.654.093-2.478.156l-1.24.1-1.236.112c-3.3.315-6.587.736-9.845,1.308-1.049.185-2.112.388-3.165.6A14.726,14.726,0,0,1,21.478,3.544m18.171,11.05h0c.021.021.021.026,0,0m3.42-.547a.505.505,0,0,0-.014-.147l-.021-.138c-.009-.047-.016-.089-.028-.138a2.757,2.757,0,0,0-.2-.579,2.988,2.988,0,0,0-.285-.479,3.649,3.649,0,0,0-.61-.643,2.07,2.07,0,0,0-.233-.175c-.075-.047-.2-.142-.282-.2l-.03-.021a1.627,1.627,0,0,0-.486-.224c-.453-.126-.908-.227-1.361-.309A19.665,19.665,0,0,0,21.6,0,19.64,19.64,0,0,0,2.379,14.218H2.36l-1.186.364-.138.04a1.464,1.464,0,0,0-.79.589,1.412,1.412,0,0,0-.226.608,1.441,1.441,0,0,0,1.261,1.6,1.651,1.651,0,0,0,.3.012,1.6,1.6,0,0,0,.184-.016h.056l.093-.016,2.03.175,2.6.215H6.6l5.316.444a.768.768,0,0,0,.35-.058.741.741,0,0,0-.147-1.414h0l-.775-.157-1.827-.362H9.488q.965-.152,1.924-.3c3.2-.476,6.4-.9,9.606-1.2l1.2-.11,1.207-.1c.806-.065,1.611-.129,2.413-.185,1.607-.112,3.212-.2,4.812-.248l.6-.016.6-.01h1.8l.609.014,1.224.017c.161,0,.32,0,.477.01.63.017,1.242.049,1.829.112.369.038.729.087,1.079.154l.236.049c-.037.03-.072.059-.11.087a9,9,0,0,1-1.31.837c-.4.212-.818.413-1.264.617l-.306.138-.317.142-.066.014c-.056.014-.114.03-.164.047l-.077.026-.068.028h-.012l-.044.017-.045.021-.024.01-.051.021-.393.175-.1.042-.1.044-.191.086c-.276.115-.556.226-.834.337l-.421.161-.212.08-.212.079c-.563.21-1.135.413-1.708.61s-1.156.385-1.749.573-1.172.369-1.764.549l-1.778.537-.22.066-.22.063-.439.126-.89.252c-.595.175-1.189.329-1.784.488q-1.264.339-2.53.645c-.376.091-.752.175-1.128.269.4-.416.8-.827,1.224-1.224h0a1.858,1.858,0,0,0,.257-.311,1.905,1.905,0,0,0-.549-2.67,1.962,1.962,0,0,0-2.7.544c-.372.556-.771,1.1-1.175,1.636s-.8,1.035-1.224,1.56-.848,1.049-1.282,1.553c-.217.257-.435.511-.656.764l-.663.759q-1.331,1.509-2.717,2.96l-.264.271a15.937,15.937,0,0,1-2.322-8.392c0-.133,0-.264,0-.4l-.652-.054-2.8-.233-1.278-.11c0,.226-.014.449-.014.677A18.546,18.546,0,0,0,5.773,30.516,1.907,1.907,0,0,0,6.259,32.9a1.961,1.961,0,0,0,2.049.261A1.924,1.924,0,0,0,9,32.636l.01-.012c.672-.809,1.333-1.6,1.992-2.39l.647-.769q1.315-1.561,2.637-3.1l.35-.4a1.941,1.941,0,0,0,1.142.145c2.522-.442,5.014-1.016,7.469-1.668.614-.164,1.224-.33,1.836-.5l.913-.262.462-.135.231-.066.227-.07.906-.276.9-.281q.9-.283,1.812-.58c1.21-.4,2.422-.829,3.625-1.3l.226-.089.226-.093.449-.185c.3-.129.6-.254.9-.388l.222-.1.112-.051.115-.052.266-.126.052-.023.107-.028a2.3,2.3,0,0,0,.285-.1l.056-.026h.012l.023-.012.093-.045.423-.206c.572-.281,1.17-.58,1.775-.93a12.74,12.74,0,0,0,1.749-1.2l.047-.038c.145-.121.287-.247.427-.378.068-.066.138-.131.206-.2l.1-.1.114-.119L42.2,16.4l.08-.094c.028-.033.049-.059.07-.087s.044-.054.065-.084a3.885,3.885,0,0,0,.262-.383,3.568,3.568,0,0,0,.213-.449,3.171,3.171,0,0,0,.149-.525,2.845,2.845,0,0,0,.049-.587.858.858,0,0,0-.009-.15" transform="translate(-0.009)" fill="#ce181e"/>
</svg>
